<svg width="30" height="30" viewBox="0 0 30 30" fill="none" xmlns="http://www.w3.org/2000/svg">
<g clip-path="url(#clip0_80_92)">
<path d="M27.1152 2.9C28.3152 2.9 28.9152 3.46666 28.9152 4.6C28.9152 5.2 28.6819 5.66666 28.2152 6C24.7486 8.6 22.9152 11.6333 22.7152 15.1C24.7152 15.2333 26.2486 15.9 27.3152 17.1C28.3819 18.2333 28.9152 19.6667 28.9152 21.4C28.9152 23.0667 28.3152 24.5333 27.1152 25.8C25.9152 27 24.4486 27.6 22.7152 27.6C20.9819 27.6 19.4819 26.9 18.2152 25.5C16.9486 24.1 16.3152 21.9333 16.3152 19C16.3152 16.0667 17.3152 13.0667 19.3152 10C21.3152 6.93333 23.4486 4.73333 25.7152 3.4C26.2486 3.06666 26.7152 2.9 27.1152 2.9ZM10.9152 2.9C12.1152 2.9 12.7152 3.46666 12.7152 4.6C12.7152 5.2 12.4819 5.66666 12.0152 6C8.54857 8.6 6.71524 11.6333 6.51524 15.1C8.51524 15.2333 10.0486 15.9 11.1152 17.1C12.1819 18.2333 12.7152 19.6667 12.7152 21.4C12.7152 23.0667 12.1152 24.5333 10.9152 25.8C9.71523 27 8.24857 27.6 6.51524 27.6C4.7819 27.6 3.2819 26.9 2.01523 25.5C0.748568 24.1 0.115234 21.9333 0.115234 19C0.115234 16.0667 1.11523 13.0667 3.11523 10C5.11524 6.93333 7.24857 4.73333 9.51524 3.4C10.0486 3.06666 10.5152 2.9 10.9152 2.9Z" fill="#D9D9D9"/>
</g>
<defs>
<clipPath id="clip0_80_92">
<rect width="30" height="30" fill="white"/>
</clipPath>
</defs>
</svg>
